<svg xmlns="http://www.w3.org/2000/svg" width="1800" height="1320" viewBox="0 0 1800 1320" role="img" aria-labelledby="title desc">
  <title id="title">Thursday Agent Control Flow Diagram</title>
  <desc id="desc">Control flow for one Thursday agent turn from user message through frontend, server, orchestrator, LLM, skill loading, tool dispatch, observations, retry handling, persistence, and final answer.</desc>
  <defs>
    <style>
      .bg { fill: #f7f9fc; }
      .lane { fill: #ffffff; stroke: #c8d1e2; stroke-width: 2; rx: 18; }
      .lane-title { fill: #1f2a44; font: 700 22px Arial, sans-serif; }
      .step { fill: #fbfdff; stroke: #7d8fb3; stroke-width: 2; rx: 11; }
      .decision { fill: #fff8e8; stroke: #c99018; stroke-width: 2; }
      .io { fill: #eef5ff; stroke: #3368c6; stroke-width: 2; rx: 11; }
      .tool { fill: #f2fbf6; stroke: #2b9b61; stroke-width: 2; rx: 11; }
      .error { fill: #fff0f0; stroke: #d45656; stroke-width: 2; rx: 11; }
      .store { fill: #f8f2ff; stroke: #8652c7; stroke-width: 2; rx: 11; }
      .label { fill: #18233a; font: 700 17px Arial, sans-serif; }
      .text { fill: #344055; font: 14px Arial, sans-serif; }
      .small { fill: #5e6a82; font: 12.5px Arial, sans-serif; }
      .edge { fill: none; stroke: #51627f; stroke-width: 2.1; marker-end: url(#arrow); }
      .edge-green { fill: none; stroke: #238454; stroke-width: 2.1; marker-end: url(#arrowGreen); }
      .edge-purple { fill: none; stroke: #7546b4; stroke-width: 2.1; marker-end: url(#arrowPurple); }
      .edge-red { fill: none; stroke: #c84d4d; stroke-width: 2.1; marker-end: url(#arrowRed); }
      .edge-soft { fill: none; stroke: #8a99b5; stroke-width: 1.7; marker-end: url(#arrowSoft); stroke-dasharray: 7 7; }
    </style>
    <marker id="arrow" markerWidth="12" markerHeight="12" refX="10" refY="6" orient="auto" markerUnits="strokeWidth">
      <path d="M2,2 L10,6 L2,10 Z" fill="#51627f"/>
    </marker>
    <marker id="arrowGreen" markerWidth="12" markerHeight="12" refX="10" refY="6" orient="auto" markerUnits="strokeWidth">
      <path d="M2,2 L10,6 L2,10 Z" fill="#238454"/>
    </marker>
    <marker id="arrowPurple" markerWidth="12" markerHeight="12" refX="10" refY="6" orient="auto" markerUnits="strokeWidth">
      <path d="M2,2 L10,6 L2,10 Z" fill="#7546b4"/>
    </marker>
    <marker id="arrowRed" markerWidth="12" markerHeight="12" refX="10" refY="6" orient="auto" markerUnits="strokeWidth">
      <path d="M2,2 L10,6 L2,10 Z" fill="#c84d4d"/>
    </marker>
    <marker id="arrowSoft" markerWidth="12" markerHeight="12" refX="10" refY="6" orient="auto" markerUnits="strokeWidth">
      <path d="M2,2 L10,6 L2,10 Z" fill="#8a99b5"/>
    </marker>
  </defs>

  <rect class="bg" width="1800" height="1320"/>
  <text x="70" y="70" style="fill:#1f2a44;font:700 34px Arial,sans-serif;">Thursday Agent Control Flow</text>
  <text x="70" y="100" style="fill:#5e6a82;font:15px Arial,sans-serif;">One agent turn: user input, permanent instructions, optional skill loading, LM Studio calls, unified tool dispatch, observations, continuation retry, persistence, and visible answer.</text>

  <rect x="55" y="145" width="245" height="1060" class="lane"/>
  <text x="85" y="185" class="lane-title">Frontend</text>
  <rect x="85" y="240" width="185" height="78" class="io"/>
  <text x="105" y="270" class="label">User sends task</text>
  <text x="105" y="295" class="small">Text + optional images</text>
  <rect x="85" y="1060" width="185" height="78" class="io"/>
  <text x="105" y="1090" class="label">Render result</text>
  <text x="105" y="1115" class="small">Messages, events, files</text>

  <rect x="335" y="145" width="285" height="1060" class="lane"/>
  <text x="365" y="185" class="lane-title">Server Runtime</text>
  <rect x="365" y="235" width="225" height="92" class="step"/>
  <text x="390" y="268" class="label">HTTP route</text>
  <text x="390" y="294" class="text">POST chat turn</text>
  <rect x="365" y="365" width="225" height="100" class="step"/>
  <text x="390" y="398" class="label">AppState</text>
  <text x="390" y="424" class="text">Get/create session</text>
  <text x="390" y="447" class="small">Normalize image payloads</text>
  <rect x="365" y="1005" width="225" height="105" class="store"/>
  <text x="390" y="1038" class="label">Persist state</text>
  <text x="390" y="1064" class="text">SessionStore</text>
  <text x="390" y="1087" class="small">Events, visible messages</text>

  <rect x="655" y="145" width="365" height="1060" class="lane"/>
  <text x="685" y="185" class="lane-title">Orchestrator</text>
  <rect x="695" y="235" width="285" height="98" class="step"/>
  <text x="720" y="268" class="label">Prepare timeline</text>
  <text x="720" y="294" class="text">System prompt + operating</text>
  <text x="720" y="316" class="small">instructions + user message</text>
  <rect x="695" y="365" width="285" height="92" class="step"/>
  <text x="720" y="398" class="label">Prune context</text>
  <text x="720" y="424" class="text">ConversationContextManager</text>
  <rect x="695" y="495" width="285" height="98" class="step"/>
  <text x="720" y="528" class="label">Agent loop step</text>
  <text x="720" y="554" class="text">Call LM Studio with</text>
  <text x="720" y="576" class="small">messages, settings, enabled tools</text>
  <polygon points="837,635 970,710 837,785 704,710" class="decision"/>
  <text x="781" y="704" class="label">Tool calls?</text>
  <text x="794" y="728" class="small">auto tool choice</text>
  <rect x="695" y="840" width="285" height="96" class="step"/>
  <text x="720" y="873" class="label">Record assistant</text>
  <text x="720" y="899" class="text">Visible answer or fallback</text>
  <rect x="695" y="970" width="285" height="100" class="step"/>
  <text x="720" y="1003" class="label">Finish turn</text>
  <text x="720" y="1029" class="text">Status idle, metrics refresh</text>
  <text x="720" y="1052" class="small">Save session</text>

  <rect x="1055" y="145" width="295" height="1060" class="lane"/>
  <text x="1085" y="185" class="lane-title">LLM + Skills</text>
  <rect x="1085" y="495" width="235" height="98" class="io"/>
  <text x="1110" y="528" class="label">LM Studio</text>
  <text x="1110" y="554" class="text">Assistant message</text>
  <text x="1110" y="576" class="small">Content and/or tool calls</text>
  <rect x="1085" y="640" width="235" height="98" class="store"/>
  <text x="1110" y="673" class="label">Skill Catalog</text>
  <text x="1110" y="699" class="text">SKILL.md frontmatter</text>
  <text x="1110" y="721" class="small">what_it_does + when_to_use</text>
  <rect x="1085" y="780" width="235" height="112" class="store"/>
  <text x="1110" y="813" class="label">Loaded Skill</text>
  <text x="1110" y="839" class="text">load_skill returns</text>
  <text x="1110" y="862" class="small">user-role instruction</text>

  <rect x="1385" y="145" width="360" height="1060" class="lane"/>
  <text x="1415" y="185" class="lane-title">Unified Tool System</text>
  <rect x="1425" y="360" width="280" height="95" class="tool"/>
  <text x="1450" y="393" class="label">Dispatcher</text>
  <text x="1450" y="419" class="text">Parse raw tool call</text>
  <text x="1450" y="441" class="small">Extract {"input": {...}}</text>
  <rect x="1425" y="495" width="280" height="95" class="tool"/>
  <text x="1450" y="528" class="label">Registry</text>
  <text x="1450" y="554" class="text">Check enabled tools</text>
  <text x="1450" y="576" class="small">Invoke concrete module</text>
  <rect x="1425" y="630" width="280" height="110" class="tool"/>
  <text x="1450" y="663" class="label">Concrete Tool</text>
  <text x="1450" y="689" class="text">system/ or workspace/</text>
  <text x="1450" y="712" class="small">No custom parser per tool</text>
  <rect x="1425" y="780" width="280" height="98" class="tool"/>
  <text x="1450" y="813" class="label">Tool Result Presenter</text>
  <text x="1450" y="839" class="text">Build observation</text>
  <text x="1450" y="861" class="small">{ok, tool, output, error, meta}</text>
  <rect x="1425" y="925" width="280" height="98" class="error"/>
  <text x="1450" y="958" class="label">Recovery Paths</text>
  <text x="1450" y="984" class="text">Tool error, empty response,</text>
  <text x="1450" y="1006" class="small">max steps, continuation retry</text>

  <path class="edge" d="M270 279 C315 279 325 281 365 281"/>
  <path class="edge" d="M590 415 C635 415 650 284 695 284"/>
  <path class="edge" d="M837 333 L837 365"/>
  <path class="edge" d="M837 457 L837 495"/>
  <path class="edge-purple" d="M980 544 C1020 544 1040 544 1085 544"/>
  <path class="edge-purple" d="M1085 544 C1040 544 1020 544 980 544"/>
  <path class="edge" d="M837 593 L837 635"/>
  <path class="edge-green" d="M970 710 C1135 710 1260 407 1425 407"/>
  <path class="edge-green" d="M1565 455 L1565 495"/>
  <path class="edge-green" d="M1565 590 L1565 630"/>
  <path class="edge-green" d="M1565 740 L1565 780"/>
  <path class="edge-green" d="M1425 829 C1255 829 1145 830 980 710"/>
  <path class="edge-purple" d="M1425 685 C1360 685 1360 689 1320 689"/>
  <path class="edge-purple" d="M1202 738 L1202 780"/>
  <path class="edge-purple" d="M1085 836 C1038 836 1028 710 970 710"/>
  <path class="edge" d="M704 710 C655 710 655 888 695 888"/>
  <path class="edge" d="M837 936 L837 970"/>
  <path class="edge-soft" d="M837 1070 C760 1115 660 1060 590 1058"/>
  <path class="edge" d="M695 1020 C560 1020 350 1098 270 1098"/>
  <path class="edge-red" d="M1565 878 L1565 925"/>
  <path class="edge-red" d="M1425 974 C1270 974 1030 870 980 710"/>

  <text x="1000" y="696" class="small">yes</text>
  <text x="766" y="812" class="small">no</text>
  <text x="1328" y="666" class="small">load_skill/read_skill_resource</text>
  <text x="1220" y="856" class="small">append loaded skill as user message</text>

  <rect x="70" y="1240" width="1660" height="55" fill="#ffffff" stroke="#d6deeb" stroke-width="1.5" rx="10"/>
  <text x="95" y="1274" class="label">Loop invariant:</text>
  <text x="225" y="1274" class="text">The model chooses tool calls, the dispatcher parses and routes them, the registry invokes tools, and the orchestrator only controls the loop and records observations.</text>
</svg>


